# AST/ASF file generated using VICON BodyLanguage
# -----------------------------------------------
:version 1.10
:name VICON
:units
  mass 1.0
  length 0.45
  angle deg
:documentation
   .ast/.asf automatically generated from VICON data using
   VICON BodyBuilder and BodyLanguage model FoxedUp or BRILLIANT.MOD
:root
   order TX TY TZ RX RY RZ
   axis XYZ
   position 0 0 0  
   orientation 0 0 0 
:bonedata
  begin
     id 1 
     name lhipjoint
     direction 0.588788 -0.725889 0.355548 
     length 2.37778 
     axis 0 0 0  XYZ
  end
  begin
     id 2 
     name lfemur
     direction 0.34202 -0.939693 0  
     length 6.86393  
     axis 0 0 20  XYZ
    dof rx ry rz
    limits (-160.0 20.0)
           (-70.0 70.0)
           (-60.0 70.0)
  end
  begin
     id 3 
     name ltibia
     direction 0.34202 -0.939693 0   
     length 7.32851   
     axis 0 0 20   XYZ
    dof rx
    limits (-10.0 170.0)
  end
  begin
     id 4 
     name lfoot
     direction 0.0626533 -0.172138 0.983078   
     length 1.98929   
     axis -90 7.62852e-016 20   XYZ
    dof rx rz
    limits (-45.0 90.0)
           (-70.0 20.0)
  end
  begin
     id 5 
     name ltoes
     direction 1.53647e-011 -4.21734e-011 1   
     length 1.00479   
     axis -90 7.62852e-016 20   XYZ
    dof rx
    limits (-90.0 20.0)
  end
  begin
     id 6 
     name rhipjoint
     direction -0.59141 -0.724168 0.354705   
     length 2.38343  
     axis 0 0 0  XYZ 
  end
  begin
     id 7 
     name rfemur
     direction -0.34202 -0.939693 0   
     length 6.95589   
     axis 0 0 -20   XYZ
    dof rx ry rz
    limits (-160.0 20.0)
           (-70.0 70.0)
           (-70.0 60.0)
  end
  begin
     id 8 
     name rtibia
     direction -0.34202 -0.939693 0   
     length 7.32327   
     axis 0 0 -20   XYZ
    dof rx
    limits (-10.0 170.0)
 end
 begin
     id 9 
     name rfoot
     direction -0.0660461 -0.18146 0.981178   
     length 1.85272  
     axis -90 -7.62852e-016 -20   XYZ
    dof rx rz
    limits (-45.0 90.0)
           (-20.0 70.0)
  end
  begin
     id 10 
     name rtoes
     direction -1.53586e-011 -4.21988e-011 1   
     length 0.93746   
     axis -90 -7.62852e-016 -20   XYZ
    dof rx
    limits (-90.0 20.0)
  end
  begin
     id 11 
     name lowerback
     direction -0.0107982 0.991059 0.13299   
     length 1.98691   
     axis 0 0 0   XYZ
    dof rx ry rz
    limits (-20.0 45.0)
           (-30.0 30.0)
           (-30.0 30.0)
  end
  begin
     id 12 
     name upperback
     direction 0.0076296 0.999916 0.0104576   
     length 1.99501   
     axis 0 0 0   XYZ
    dof rx ry rz
    limits (-20.0 45.0)
           (-30.0 30.0)
           (-30.0 30.0)
  end
  begin
     id 13 
     name thorax
     direction 0.01176 0.998615 -0.0512909   
     length 2.03144   
     axis 0 0 0   XYZ
    dof rx ry rz
    limits (-20.0 45.0)
           (-30.0 30.0)
           (-30.0 30.0)
  end
  begin
     id 14 
     name lowerneck
     direction -0.0171909 0.999644 0.0204011   
     length 1.71818   
     axis 0 0 0   XYZ
    dof rx ry rz
    limits (-20.0 45.0)
           (-30.0 30.0)
           (-30.0 30.0)
  end
  begin
     id 15 
     name upperneck
     direction 0.0250902 0.997482 -0.0663316   
     length 1.66199   
     axis 0 0 0   XYZ
    dof rx ry rz
    limits (-20.0 45.0)
           (-30.0 30.0)
           (-30.0 30.0)
  end
  begin
     id 16
     name head
     direction 0.00881535 0.99956 -0.0283365  
     length 1.81545  
     axis 0 0 0   XYZ
    dof rx ry rz
    limits (-20.0 45.0)
           (-30.0 30.0)
           (-30.0 30.0)
  end
  begin
     id 17 
     name lclavicle
     direction 0.840411 0.486876 -0.238035  
     length 3.30409  
     axis 0 0 0   XYZ
    dof ry rz
    limits (-20.0 10.0)
           (0.0 20.0)
  end
  begin
     id 18 
     name lhumerus
     direction 1 -4.48977e-011 -5.16239e-027   
     length 4.62672   
     axis 180 -30 -90   XYZ
    dof rx ry rz
    limits (-60.0 90.0)
           (-90.0 90.0)
           (-90.0 90.0)
  end
  begin
     id 19
     name lradius
     direction 1 -4.48977e-011 -8.71171e-027   
     length 3.11018   
     axis 180 -30 -90   XYZ
    dof rx
    limits (-10.0 170.0)
  end
  begin
     id 20
     name lwrist
     direction 1 -4.48912e-011 -1.03764e-026   
     length 1.55509   
     axis 9.09556e-015 90 90   XYZ
    dof ry
    limits (-180.0 0.0)
 end
  begin
     id 21 
     name lhand
     direction 1 -4.49072e-011 -2.07528e-026   
     length 0.743834   
     axis 1.3242e-014 90 90   XYZ
    dof rx rz
    limits (-90.0 90.0)
           (-45.0 45.0)
  end
  begin
     id 22 
     name lfingers
     direction 1 -4.48909e-011 -4.15056e-026   
     length 0.599698   
     axis 2.64841e-014 90 90   XYZ
    dof rx
    limits (0.0 90.0)
  end
  begin
     id 23
     name lthumb
     direction 0.707107 -6.35013e-011 0.707107   
     length 0.86105   
     axis -90 45 2.85299e-015   XYZ
    dof rx rz
    limits (-45.0 45.0)
           (-45.0 45.0)
  end
  begin
     id 24 
     name rclavicle
     direction -0.835208 0.500237 -0.228452   
     length 3.2716  
     axis 0 0 0   XYZ 
    dof ry rz
    limits (-10.0 20.0)
           (-20.0 0.0)
  end
  begin
     id 25 
     name rhumerus
     direction -1 -4.48978e-011 -5.1953e-028  
     length 4.55919   
     axis 180 30 90   XYZ
    dof rx ry rz
    limits (-90.0 60.0)
           (-90.0 90.0)
           (-90.0 90.0)
  end
  begin
     id 26 
     name rradius
     direction -1 -4.48961e-011 -5.99546e-027   
     length 3.22748   
     axis 180 30 90   XYZ
    dof rx
    limits (-10.0 170.0)
  end
  begin
     id 27 
     name rwrist
     direction -1 -4.48986e-011 -1.03764e-026   
     length 1.61374   
     axis 9.09556e-015 -90 -90   XYZ
    dof ry
    limits (-180.0 0.0)
  end
  begin
     id 28
     name rhand
     direction -1 -4.4899e-011 -2.07528e-026   
     length 0.700882   
     axis 1.3242e-014 -90 -90   XYZ
    dof rx rz
    limits (-90.0 90.0)
           (-45.0 45.0)
  end
  begin
     id 29
     name rfingers
     direction -1 -4.48991e-011 -4.15056e-026   
     length 0.565069   
     axis 2.64841e-014 -90 -90   XYZ
    dof rx
    limits (0.0 90.0)
  end
  begin
     id 30
     name rthumb
     direction -0.707107 -6.34804e-011 0.707107   
     length 0.811329   
     axis -90 -45 -2.85299e-015   XYZ
    dof rx rz
    limits (-45.0 45.0)
           (-45.0 45.0)
  end
:hierarchy
  begin
    root lhipjoint rhipjoint lowerback
    lhipjoint lfemur
    lfemur ltibia
    ltibia lfoot
    lfoot ltoes
    rhipjoint rfemur
    rfemur rtibia
    rtibia rfoot
    rfoot rtoes
    lowerback upperback
    upperback thorax
    thorax lowerneck lclavicle rclavicle
    lowerneck upperneck
    upperneck head
    lclavicle lhumerus
    lhumerus lradius
    lradius lwrist
    lwrist lhand lthumb
    lhand lfingers
    rclavicle rhumerus
    rhumerus rradius
    rradius rwrist
    rwrist rhand rthumb
    rhand rfingers
  end

#!OML:ASF F:\VICON\USERDATA\INSTALL\SteveWalk\SteveWalk.ASF
:FULLY-SPECIFIED
:DEGREES
143
root -0.731254 16.3417 -16.2756 17.1139 -2.06924 0.0727231
lowerback -14.6969 1.27197 0.747561
upperback -4.73207 1.52063 1.18228
thorax 3.21994 0.757681 1.07573
lowerneck -3.26552 0.292002 1.13521
upperneck 7.23761 0.619704 -4.02996
head 2.90422 0.20368 -1.48135
rclavicle -5.72748e-015 -9.93923e-015
rhumerus -19.7824 3.7086 -85.3343
rradius 47.3063
rwrist -15.1309
rhand -15.0985 -34.7238
rfingers 7.12502
rthumb 11.0697 -64.4118
lclavicle -5.72748e-015 -9.93923e-015
lhumerus -48.7979 15.7493 75.44
lradius 16.0079
lwrist -20.9382
lhand -16.2533 -17.3775
lfingers 7.12502
lthumb 9.95578 12.367
rfemur -16.0566 -9.10273 24.6247
rtibia 28.5776
rfoot -29.2077 14.3997
rtoes 1.2913
lfemur -48.1679 3.89543 -23.3948
ltibia 32.9798
lfoot -7.53264 7.34981
ltoes -7.79066
144
root -0.729944 16.3228 -16.0721 17.0742 -2.38951 0.0318244
lowerback -14.6043 1.32539 0.676889
upperback -4.75164 1.60452 1.13508
thorax 3.14814 0.799244 1.0777
lowerneck -2.7714 0.504325 1.11268
upperneck 6.7593 0.883816 -3.93255
head 2.65706 0.347087 -1.42966
rclavicle -2.76062e-014 -1.63003e-014
rhumerus -19.3665 4.52363 -85.3013
rradius 48.3088
rwrist -14.9298
rhand -14.9038 -33.6881
rfingers 7.12502
rthumb 11.2576 -63.3661
lclavicle -2.76062e-014 -1.63003e-014
lhumerus -49.6561 16.3178 74.42
lradius 15.8447
lwrist -21.3451
lhand -16.2039 -16.7895
lfingers 7.12502
lthumb 10.0035 12.9527
rfemur -14.7727 -9.50655 24.4629
rtibia 27.814
rfoot -29.3428 15.1823
rtoes 1.35712
lfemur -47.7253 3.79338 -23.2007
ltibia 29.2762
lfoot -6.82992 7.24764
ltoes -9.41307
145
root -0.722931 16.298 -15.8697 17.0079 -2.73644 0.177847
lowerback -14.537 1.37372 0.502242
upperback -4.68412 1.69864 0.996897
thorax 3.18107 0.8454 1.0469
lowerneck -1.55972 0.800625 0.8454
upperneck 5.53433 1.23384 -3.59985
head 2.03323 0.547939 -1.25383
rclavicle -1.43063e-014 -5.56597e-015
rhumerus -18.7278 5.20384 -85.2633
rradius 49.1391
rwrist -15.1363
rhand -15.1825 -33.9773
rfingers 7.12502
rthumb 10.9887 -63.6697
lclavicle -1.43063e-014 -5.56597e-015
lhumerus -50.3324 17.0526 73.2949
lradius 15.6319
lwrist -22.0794
lhand -16.1497 -16.659
lfingers 7.12502
lthumb 10.0557 13.0807
rfemur -13.4641 -9.99182 24.065
rtibia 27.0021
rfoot -29.694 15.4265
rtoes -0.546931
lfemur -47.2662 3.64584 -23.2026
ltibia 25.627
lfoot -6.46209 6.8485
ltoes -5.29247
146
root -0.711358 16.269 -15.6627 17.0301 -3.06014 0.170518
lowerback -14.5685 1.49209 0.563926
upperback -4.62884 1.85142 0.8408
thorax 3.26128 0.91998 0.876686
lowerneck -1.45876 0.822257 0.814191
upperneck 5.14049 1.2421 -3.40604
head 1.88447 0.560439 -1.18398
rclavicle 9.42985e-015 -4.77083e-015
rhumerus -18.151 5.90887 -85.2946
rradius 49.806
rwrist -15.924
rhand -16.3338 -33.6198
rfingers 7.12502
rthumb 9.87814 -63.3681
lclavicle 9.42985e-015 -4.77083e-015
lhumerus -50.938 17.8503 72.0118
lradius 15.2246
lwrist -22.9387
lhand -16.2192 -17.1154
lfingers 7.12502
lthumb 9.98871 12.6276
rfemur -12.2473 -10.3734 23.8231
rtibia 26.0931
rfoot -29.9748 15.4353
rtoes -2.5169
lfemur -46.9334 3.56754 -23.0562
ltibia 22.21
lfoot -6.65777 6.31168
ltoes -1.29622
147
root -0.704868 16.2485 -15.4528 17.2371 -3.53177 -0.158951
lowerback -14.7538 1.7266 0.854069
upperback -4.70064 2.11964 0.770487
thorax 3.29565 1.05185 0.689977
lowerneck -1.16375 0.849768 0.703677
upperneck 4.64859 1.25414 -3.1041
head 1.66891 0.577574 -1.06647
rclavicle -3.11781e-014 -1.94809e-014
rhumerus -17.7332 6.47975 -85.2887
rradius 50.5014
rwrist -15.8664
rhand -17.6233 -34.6899
rfingers 7.12502
rthumb 8.63389 -64.4933
lclavicle -3.11781e-014 -1.94809e-014
lhumerus -51.7355 18.4407 70.7673
lradius 14.904
lwrist -23.6499
lhand -16.2685 -17.4966
lfingers 7.12502
lthumb 9.94116 12.2487
rfemur -11.1667 -10.0987 23.8739
rtibia 25.0826
rfoot -29.5383 16.2197
rtoes -0.750341
lfemur -46.895 3.92529 -22.7625
ltibia 19.2138
lfoot -6.6225 5.65739
ltoes -4.53343
148
root -0.70674 16.2396 -15.2463 17.5761 -4.35516 -0.618055
lowerback -14.9456 2.09626 1.0394
upperback -4.80148 2.57791 0.752966
thorax 3.29887 1.27812 0.65157
lowerneck -1.13309 0.870209 0.702158
upperneck 4.41703 1.26818 -2.93364
head 1.58752 0.589953 -1.01119
rclavicle 3.60856e-014 1.19271e-014
rhumerus -17.2232 6.7923 -85.1565
rradius 50.8293
rwrist -15.3027
rhand -17.6811 -33.6296
rfingers 7.12502
rthumb 8.5781 -63.4354
lclavicle 3.60856e-014 1.19271e-014
lhumerus -52.5142 19.1619 69.4282
lradius 14.6836
lwrist -24.6766
lhand -16.2762 -17.9127
lfingers 7.12502
lthumb 9.93366 11.8329
rfemur -10.1271 -9.10639 23.9814
rtibia 24.0109
rfoot -28.9301 16.7502
rtoes 0.553943
lfemur -47.1193 4.90786 -22.6672
ltibia 16.733
lfoot -6.53041 4.75237
ltoes -6.71978
149
root -0.705822 16.2311 -15.0381 17.8271 -5.18458 -0.852491
lowerback -15.1297 2.42432 1.00887
upperback -4.836 3.01404 0.6841
thorax 3.36221 1.49349 0.680366
lowerneck -1.55684 0.815861 0.869998
upperneck 4.67061 1.20059 -3.01742
head 1.74484 0.55207 -1.06855
rclavicle 2.7308e-014 1.98785e-015
rhumerus -16.7012 6.9618 -84.9945
rradius 51.1843
rwrist -15.0335
rhand -17.1483 -32.6623
rfingers 7.12502
rthumb 9.09225 -62.4463
lclavicle 2.7308e-014 1.98785e-015
lhumerus -53.239 20.1217 67.851
lradius 14.3276
lwrist -25.9374
lhand -16.4544 -18.1352
lfingers 7.12502
lthumb 9.76175 11.6186
rfemur -9.06879 -8.38645 23.8229
rtibia 23.0374
rfoot -28.5646 16.9306
rtoes -0.120493
lfemur -47.3462 6.11419 -23.1109
ltibia 14.6364
lfoot -6.66387 3.38913
ltoes -4.11276
150
root -0.698911 16.2145 -14.8267 17.9624 -5.73959 -0.860786
lowerback -15.2601 2.58344 0.893751
upperback -4.84043 3.24245 0.581903
thorax 3.42649 1.60589 0.684766
lowerneck -2.0448 0.749383 0.907367
upperneck 4.98128 1.11938 -3.05415
head 1.93118 0.50513 -1.08994
rclavicle 6.91398e-015 -8.34896e-015
rhumerus -16.431 7.3497 -84.8802
rradius 51.8694
rwrist -15.3126
rhand -17.123 -32.205
rfingers 7.12502
rthumb 9.11664 -61.9879
lclavicle 6.91398e-015 -8.34896e-015
lhumerus -53.9917 20.7465 66.6646
lradius 14.098
lwrist -26.5077
lhand -16.8346 -17.8316
lfingers 7.12502
lthumb 9.39493 11.939
rfemur -8.03231 -8.18996 23.4537
rtibia 22.2732
rfoot -28.2975 17.1327
rtoes -1.44768
lfemur -47.6475 7.74245 -24.4545
ltibia 12.825
lfoot -6.88713 1.01553
ltoes -2.58468
151
root -0.693282 16.1845 -14.6144 18.1574 -6.12744 -0.957131
lowerback -15.4685 2.67875 0.89614
upperback -4.84673 3.36739 0.495107
thorax 3.53635 1.66661 0.625184
lowerneck -2.16771 0.787525 0.786546
upperneck 4.98803 1.16338 -2.81982
head 1.95231 0.529155 -0.993538
rclavicle 4.80313e-014 1.74931e-014
rhumerus -16.2965 7.81505 -84.8536
rradius 52.5412
rwrist -15.5221
rhand -17.503 -31.9263
rfingers 7.12502
rthumb 8.74994 -61.7249
lclavicle 4.80313e-014 1.74931e-014
lhumerus -54.6342 21.0592 65.8812
lradius 14.0582
lwrist -26.6015
lhand -17.1041 -17.3541
lfingers 7.12502
lthumb 9.13489 12.4281
rfemur -7.08949 -7.75902 23.2389
rtibia 21.6732
rfoot -27.9287 17.0666
rtoes -2.5852
lfemur -48.0719 9.61319 -26.1399
ltibia 11.3275
lfoot -7.93005 -1.8569
ltoes -2.98326
152
root -0.686192 16.1488 -14.3976 18.3603 -6.33818 -1.10721
lowerback -15.77 2.74034 0.964899
upperback -4.80354 3.43495 0.431824
thorax 3.75073 1.69871 0.549285
lowerneck -2.26426 0.858273 0.659304
upperneck 4.89784 1.2479 -2.558
head 1.93751 0.574916 -0.886153
rclavicle -1.64246e-014 -5.96354e-015
rhumerus -15.9908 8.04849 -84.831
rradius 52.9657
rwrist -15.4627
rhand -17.6834 -31.9551
rfingers 7.12502
rthumb 8.57592 -61.7609
lclavicle -1.64246e-014 -5.96354e-015
lhumerus -55.2826 22.0398 64.3706
lradius 13.8189
lwrist -27.687
lhand -17.089 -17.431
lfingers 7.12502
lthumb 9.14951 12.3505
rfemur -6.2423 -7.26068 23.1287
rtibia 21.2778
rfoot -27.4023 17.0739
rtoes -2.86293
lfemur -48.5529 11.3382 -27.8427
ltibia 10.0877
lfoot -9.4959 -4.90771
ltoes -1.32271
153
root -0.67874 16.124 -14.1771 18.3835 -6.45115 -1.11799
lowerback -15.8206 2.75685 0.893585
upperback -4.8012 3.47101 0.343273
thorax 3.78178 1.71604 0.505923
lowerneck -1.9751 0.942943 0.512642
upperneck 4.49413 1.34529 -2.2876
head 1.7523 0.631472 -0.772779
rclavicle 8.09426e-015 -6.16232e-015
rhumerus -15.7659 8.16477 -84.8221
rradius 53.2751
rwrist -15.4835
rhand -17.668 -32.2502
rfingers 7.12502
rthumb 8.59073 -62.0555
lclavicle 8.09426e-015 -6.16232e-015
lhumerus -56.2813 23.6585 61.8458
lradius 13.2744
lwrist -29.6523
lhand -17.1998 -18.0939
lfingers 7.12502
lthumb 9.04253 11.6923
rfemur -5.33163 -6.93878 22.8616
rtibia 21.1235
rfoot -27.1683 16.8447
rtoes -4.89841
lfemur -48.3249 11.0699 -27.6058
ltibia 9.08947
lfoot -9.97052 -5.38279
ltoes 0.877744
154
root -0.674113 16.1007 -13.9521 18.3617 -6.63164 -1.03399
lowerback -15.8031 2.77657 0.680341
upperback -4.92373 3.53632 0.219881
thorax 3.63843 1.7482 0.503584
lowerneck -2.47095 0.814233 0.770414
upperneck 5.19315 1.18115 -2.38506
head 2.06879 0.544629 -0.852887
rclavicle 4.39594e-014 2.50469e-014
rhumerus -15.8869 8.23438 -84.8714
rradius 53.4752
rwrist -15.4404
rhand -17.5055 -32.6666
rfingers 7.12502
rthumb 8.74755 -62.4653
lclavicle 4.39594e-014 2.50469e-014
lhumerus -57.6799 25.114 58.9698
lradius 12.6834
lwrist -31.6749
lhand -17.3733 -18.6104
lfingers 7.12502
lthumb 8.87509 11.183
rfemur -4.52385 -6.62331 22.4764
rtibia 21.1315
rfoot -27.0183 16.6105
rtoes -8.29701
lfemur -48.1639 10.7658 -27.541
ltibia 8.78382
lfoot -9.9018 -5.77628
ltoes 1.62437
155
root -0.672309 16.0693 -13.726 18.4059 -6.75037 -0.978764
lowerback -15.8126 2.76044 0.408154
upperback -5.04381 3.56031 0.146168
thorax 3.50523 1.76054 0.579987
lowerneck -2.48003 0.80081 0.631463
upperneck 5.31958 1.15722 -2.11509
head 2.10708 0.53594 -0.744383
rclavicle 2.29534e-014 1.64991e-014
rhumerus -16.1051 8.27639 -84.8902
rradius 53.6549
rwrist -15.2652
rhand -17.4055 -32.824
rfingers 7.12502
rthumb 8.84405 -62.6187
lclavicle 2.29534e-014 1.64991e-014
lhumerus -58.9962 26.2692 56.4476
lradius 12.248
lwrist -33.5578
lhand -17.3442 -18.4958
lfingers 7.12502
lthumb 8.90325 11.2963
rfemur -3.79974 -6.10078 22.1753
rtibia 21.1248
rfoot -26.378 16.747
rtoes -9.87286
lfemur -48.5551 10.3934 -27.45
ltibia 9.74975
lfoot -9.47203 -5.99354
ltoes 0.597615
156
root -0.673788 16.0415 -13.4987 18.3531 -6.71513 -0.811787
lowerback -15.7051 2.67508 0.00384936
upperback -5.07698 3.51551 0.0438235
thorax 3.39577 1.73961 0.684859
lowerneck -3.15627 0.745413 0.817189
upperneck 5.80749 1.08085 -2.11128
head 2.39144 0.495587 -0.778303
rclavicle 3.21938e-014 5.76476e-015
rhumerus -16.457 8.2048 -84.9425
rradius 54.0581
rwrist -15.2272
rhand -17.5434 -32.698
rfingers 7.12502
rthumb 8.71095 -62.4983
lclavicle 3.21938e-014 5.76476e-015
lhumerus -60.0978 27.4006 54.1356
lradius 11.9739
lwrist -35.3772
lhand -17.3138 -18.2464
lfingers 7.12502
lthumb 8.9325 11.5445
rfemur -2.97254 -5.30604 21.792
rtibia 21.3956
rfoot -25.4767 16.8382
rtoes -8.924
lfemur -48.7437 9.84513 -27.4031
ltibia 11.0186
lfoot -7.515 -6.24314
ltoes -5.04898
157
root -0.671402 16.036 -13.2603 18.1838 -6.61565 -0.574258
lowerback -15.7163 2.6047 -0.379173
upperback -5.03669 3.48924 -0.121856
thorax 3.43236 1.72642 0.723465
lowerneck -3.65082 0.644526 0.96531
upperneck 6.19731 0.932467 -1.96869
head 2.61008 0.425112 -0.7644
rclavicle 1.56077e-014 8.24956e-015
rhumerus -16.9871 7.93549 -85.0415
rradius 54.4981
rwrist -15.1391
rhand -17.6108 -32.9878
rfingers 7.12502
rthumb 8.6459 -62.7907
lclavicle 1.56077e-014 8.24956e-015
lhumerus -61.2119 28.437 51.819
lradius 11.8298
lwrist -37.1664
lhand -17.3282 -18.1994
lfingers 7.12502
lthumb 8.91867 11.5921
rfemur -2.07493 -4.69522 21.2918
rtibia 21.8061
rfoot -24.3715 17.0486
rtoes -6.86685
lfemur -48.1177 7.55518 -25.6739
ltibia 12.6813
lfoot -7.7417 -3.97031
ltoes -1.31809
